<?xml version="1.0" encoding="UTF-8"?>
<svg id="Layer_2" data-name="Layer 2" xmlns="http://www.w3.org/2000/svg" viewBox="0 0 1310.13 1039.13">
  <defs>
    <style>
      .cls-1 {
        stroke-linecap: square;
      }

      .cls-1, .cls-2, .cls-3, .cls-4 {
        stroke-width: 74px;
      }

      .cls-1, .cls-2, .cls-3, .cls-4, .cls-5 {
        fill: none;
        stroke: #fff;
      }

      .cls-1, .cls-2, .cls-3, .cls-5 {
        stroke-miterlimit: 10;
      }

      .cls-2, .cls-4 {
        stroke-linecap: round;
      }

      .cls-4 {
        stroke-linejoin: round;
      }

      .cls-5 {
        stroke-width: 25px;
      }
    </style>
  </defs>
  <path class="cls-1" d="m994.45,518.8c84.73,86.07,169.46,172.14,254.2,258.22,5.47,7.35,28.59,40.14,23.85,86.47-4.85,47.38-35.39,75.1-42.13,80.94"/>
  <path class="cls-2" d="m604.45,461.14l-201.01-202.57c-17.94-17.69-50.79-62.38-73.33-62.49l-74.89-.94c-5.6.6-11.24.81-16.86.43-16.76-1.12-30.54-6.47-44.18-18.6-2.37-2.11-4.56-4.49-6.63-7.03l-58.8-63.98"/>
  <path class="cls-2" d="m704.63,575.99l201.77,203.22c18.8,18.12,48.06,52.82,72.66,53.52l52.8.47c1.48-.11,2.97-.13,4.46-.12,22.83.26,60.01,2.73,76.82,17.32,2.49,2.16,4.78,4.6,6.93,7.19l67.4,74.04"/>
  <path class="cls-2" d="m707.02,461.38l207.42-212.12c17.47-17.47,44.17-50.47,68.77-52.77l69.76-.16c1.49,0,2.99-.08,4.48-.2,22.86-1.78,38.49,2.29,54.22-11.88,2.33-2.1,4.44-4.44,6.4-6.9l82.93-92.86"/>
  <path class="cls-4" d="m607.38,575.99l-206.38,206.64c-17.38,17.02-43.94,49.17-68.42,51.4l-69.41.16c-1.49,0-2.97.08-4.46.19-22.75,1.73-38.29-2.23-53.95,11.58-2.32,2.05-4.42,4.32-6.37,6.72l-82.51,90.46"/>
  <path class="cls-3" d="m663.21,743.56c66.83,65.05,118.92,116.2,155.91,155.23,13.57,14.32,39.33,42.01,82.04,64.34.17.09.35.18.52.27,22.8,11.86,48.28,17.62,73.98,16.98,70.94-1.78,141.88-3.56,212.82-5.34"/>
  <circle class="cls-5" cx="1193.26" cy="969.78" r="52.94"/>
  <circle cx="1193.26" cy="969.78" r="41.53"/>
  <path class="cls-1" d="m318.57,523.39c-85.61,85.81-171.22,171.63-256.83,257.44-5.52,7.33-28.89,40.02-24.09,86.21,4.9,47.23,35.76,74.87,42.56,80.69"/>
  <path class="cls-3" d="m678.11,706.7c-72.54,74.56-129.08,133.17-169.24,177.91-14.73,16.41-42.69,48.15-89.05,73.74-.19.1-.38.21-.57.31-24.75,13.59-52.41,20.2-80.3,19.46-77-2.04-154-4.08-231-6.11"/>
  <ellipse class="cls-5" cx="102.77" cy="965.96" rx="57.46" ry="60.67"/>
  <ellipse cx="102.77" cy="965.96" rx="45.08" ry="47.6"/>
  <path class="cls-1" d="m306.92,512.61c-82.07-84.76-164.14-169.53-246.21-254.29-5.3-7.24-27.69-39.53-23.1-85.15,4.7-46.66,34.28-73.96,40.8-79.71"/>
  <path class="cls-3" d="m642.26,291.26c-66.57-64.07-118.47-114.43-155.32-152.87-13.51-14.1-39.18-41.37-81.73-63.36-.17-.09-.35-.18-.52-.27-22.72-11.68-48.1-17.35-73.7-16.72-70.67,1.75-141.34,3.5-212.01,5.25"/>
  <ellipse class="cls-5" cx="114.36" cy="68.49" rx="51.27" ry="52.13"/>
  <ellipse cx="114.36" cy="68.49" rx="40.23" ry="40.9"/>
  <path class="cls-1" d="m989.42,514.02c84.13-85.71,168.25-171.42,252.38-257.13,5.43-7.32,28.39-39.97,23.68-86.1-4.82-47.18-35.14-74.78-41.83-80.6"/>
  <path class="cls-3" d="m627.43,327.56c72.26-73.42,128.6-131.15,168.6-175.21,14.67-16.16,42.53-47.42,88.72-72.62.19-.1.38-.21.57-.31,24.66-13.38,52.21-19.89,79.99-19.16,76.71,2.01,153.42,4.01,230.13,6.02"/>
  <ellipse class="cls-5" cx="1200.59" cy="72.25" rx="57.24" ry="59.75"/>
  <ellipse cx="1200.59" cy="72.25" rx="44.91" ry="46.88"/>
</svg>